<svg xmlns="http://www.w3.org/2000/svg" viewBox="0 0 1024 1024" width="1024" height="1024">
<defs>
<linearGradient id="bg" x1="0" y1="0" x2="0" y2="1"><stop offset="0" stop-color="#0B1A38"/><stop offset="1" stop-color="#13274F"/></linearGradient>
<linearGradient id="bar" x1="0" y1="0" x2="1" y2="0"><stop offset="0" stop-color="#CE1141" stop-opacity="0"/><stop offset="0.16" stop-color="#CE1141"/><stop offset="0.84" stop-color="#CE1141"/><stop offset="1" stop-color="#CE1141" stop-opacity="0"/></linearGradient>
<linearGradient id="barline" x1="0" y1="0" x2="1" y2="0"><stop offset="0" stop-color="#FFFFFF" stop-opacity="0"/><stop offset="0.2" stop-color="#FFFFFF"/><stop offset="0.8" stop-color="#FFFFFF"/><stop offset="1" stop-color="#FFFFFF" stop-opacity="0"/></linearGradient>
<linearGradient id="dashfade" gradientUnits="userSpaceOnUse" x1="140" y1="0" x2="884" y2="0"><stop offset="0" stop-color="#FFFFFF" stop-opacity="0"/><stop offset="0.2" stop-color="#FFFFFF"/><stop offset="0.8" stop-color="#FFFFFF"/><stop offset="1" stop-color="#FFFFFF" stop-opacity="0"/></linearGradient>
</defs>
<rect width="1024" height="1024" fill="url(#bg)"/>
<polygon points="512.0,290.0 717.0,880.0 307.0,880.0" fill="#22375F"/>
<polygon points="507.3,542.1 516.7,542.1 516.0,504.8 508.0,504.8" fill="#FFFFFF" opacity="0.9"/>
<polygon points="508.4,481.6 515.6,481.6 515.2,459.2 508.8,459.2" fill="#FFFFFF" opacity="0.9"/>
<polygon points="509.1,444.5 514.9,444.5 514.6,429.6 509.4,429.6" fill="#FFFFFF" opacity="0.9"/>
<polygon points="509.6,419.4 514.4,419.4 514.2,408.8 509.8,408.8" fill="#FFFFFF" opacity="0.9"/>
<polygon points="509.9,401.3 514.1,401.3 513.9,393.4 510.1,393.4" fill="#FFFFFF" opacity="0.9"/>
<polygon points="510.2,387.7 513.8,387.7 513.7,381.5 510.3,381.5" fill="#FFFFFF" opacity="0.9"/>
<polygon points="510.4,377.0 513.6,377.0 513.5,372.1 510.5,372.1" fill="#FFFFFF" opacity="0.9"/>
<polygon points="510.5,368.5 513.5,368.5 513.4,364.4 510.6,364.4" fill="#FFFFFF" opacity="0.9"/>
<polygon points="510.7,361.4 513.3,361.4 513.3,358.1 510.7,358.1" fill="#FFFFFF" opacity="0.9"/>
<g transform="translate(387,690) scale(1.25,0.8)" fill="none" stroke="#FFFFFF" stroke-width="9" stroke-linecap="round" stroke-linejoin="round"><circle cx="45" cy="80" r="38"/><circle cx="155" cy="80" r="38"/><line x1="45" y1="80" x2="95" y2="80"/><line x1="95" y1="80" x2="80" y2="35"/><line x1="80" y1="35" x2="45" y2="80"/><line x1="95" y1="80" x2="140" y2="40"/><line x1="140" y1="40" x2="155" y2="80"/><line x1="80" y1="35" x2="140" y2="40"/><line x1="130" y1="26" x2="152" y2="26"/><line x1="140" y1="40" x2="142" y2="26"/><line x1="68" y1="30" x2="92" y2="30"/></g>
<rect x="140.1" y="552.0" width="743.8" height="96" fill="url(#barline)"/>
<rect x="140.1" y="561.0" width="743.8" height="78" fill="url(#bar)"/>
<line x1="200.1" y1="600" x2="823.9" y2="600" stroke="url(#dashfade)" stroke-width="9" stroke-dasharray="34 26" stroke-linecap="round"/>
<polygon points="512.0,150.0 152.0,880.0 307.0,880.0 512.0,290.0" fill="#CE1141" stroke="#FFFFFF" stroke-width="18" stroke-linejoin="miter" paint-order="stroke"/>
<polygon points="512.0,150.0 872.0,880.0 717.0,880.0 512.0,290.0" fill="#CE1141" stroke="#FFFFFF" stroke-width="18" stroke-linejoin="miter" paint-order="stroke"/>
<rect x="86.0" y="840.0" width="251.0" height="46" rx="6" fill="#CE1141" stroke="#FFFFFF" stroke-width="18" paint-order="stroke"/>
<rect x="687.0" y="840.0" width="251.0" height="46" rx="6" fill="#CE1141" stroke="#FFFFFF" stroke-width="18" paint-order="stroke"/>
<polygon points="512.0,150.0 152.0,880.0 307.0,880.0 512.0,290.0" fill="#CE1141"/>
<polygon points="512.0,150.0 872.0,880.0 717.0,880.0 512.0,290.0" fill="#CE1141"/>
</svg>
